<svg data-v-423bf9ae="" xmlns="http://www.w3.org/2000/svg" viewBox="0 0 350 105" class="iconLeft"><!----><defs data-v-423bf9ae=""><linearGradient data-v-423bf9ae="" gradientTransform="rotate(25)" id="bf805d7b-0f9e-47d6-b64c-86f996d28af8" x1="0%" y1="0%" x2="100%" y2="0%"><stop data-v-423bf9ae="" offset="0%" style="stop-color: rgb(120, 49, 146); stop-opacity: 1;"></stop><stop data-v-423bf9ae="" offset="100%" style="stop-color: rgb(89, 188, 200); stop-opacity: 1;"></stop></linearGradient></defs><!----><g data-v-423bf9ae="" id="20196f9e-ea17-4ff7-a22b-a3f6d4768c73" fill="#ffffff" transform="matrix(4.827031257192837,0,0,4.827031257192837,117.99432947614744,2.059271623372368)"><path d="M6.19 5.03L6.19 5.03L6.19 5.03Q6.24 5.36 6.16 5.88L6.16 5.88L6.16 5.88Q6.16 6.03 6.13 6.19L6.13 6.19L6.13 6.19Q6.03 6.61 6.03 6.75L6.03 6.75L6.03 6.75Q6.03 6.94 5.95 7.59L5.95 7.59L5.95 7.59Q5.92 8.06 5.92 9.06L5.92 9.06L5.92 9.06Q5.92 10.05 6.03 10.77L6.03 10.77L6.03 10.77Q6.15 11.48 6.25 11.50L6.25 11.50L6.25 11.50Q6.36 11.52 6.45 11.34L6.45 11.34L6.45 11.34Q6.44 11.27 6.54 10.98L6.54 10.98L6.54 10.98Q6.66 10.23 6.82 9.66L6.82 9.66L6.82 9.66Q6.97 9.09 6.99 8.92L6.99 8.92L6.99 8.92Q7 8.82 7.07 8.39L7.07 8.39L7.07 8.39Q7.20 7.94 7.22 7.45L7.22 7.45L7.22 7.34L7.22 7.34Q7.28 6.58 7.28 6.27L7.28 6.27L7.28 6.27Q7.28 5.96 7.27 5.75L7.27 5.75L7.28 5.24L7.28 5.24Q7.29 5.05 7.41 4.93L7.41 4.93L7.41 4.93Q7.42 4.93 7.51 4.89L7.51 4.89L7.51 4.89Q7.60 4.84 7.69 4.81L7.69 4.81L7.69 4.81Q7.78 4.77 7.99 4.82L7.99 4.82L7.99 4.82Q8.20 4.87 8.27 4.92L8.27 4.92L8.27 4.92Q8.34 4.97 8.39 5.04L8.39 5.04L8.39 5.04Q8.43 5.11 8.46 5.16L8.46 5.16L8.46 5.16Q8.48 5.21 8.51 5.32L8.51 5.32L8.51 5.32Q8.55 5.56 8.60 6.24L8.60 6.24L8.60 6.24Q8.64 6.93 8.62 7.14L8.62 7.14L8.62 7.14Q8.61 7.35 8.61 7.66L8.61 7.66L8.60 7.85L8.60 7.85Q8.60 8.04 8.53 8.86L8.53 8.86L8.53 8.86Q8.46 9.67 8.40 9.87L8.40 9.87L8.40 9.87Q8.37 10.12 8.37 10.18L8.37 10.18L8.33 10.42L8.33 10.42Q8.33 10.46 8.32 10.50L8.32 10.50L8.32 10.50Q8.30 10.54 8.23 10.83L8.23 10.83L8.23 10.83Q8.16 11.12 8.15 11.14L8.15 11.14L8.08 11.45L8.08 11.45Q7.80 12.10 7.73 12.18L7.73 12.18L7.73 12.18Q7.73 12.25 7.45 12.56L7.45 12.56L7.22 12.85L7.11 12.94L7.11 12.94Q6.57 13.48 5.89 13.02L5.89 13.02L5.54 12.77L5.54 12.77Q5.46 12.64 5.32 12.52L5.32 12.52L5.32 12.52Q5.31 12.47 5.19 12.36L5.19 12.36L5.19 12.36Q5.08 12.24 5.00 12.10L5.00 12.10L5.00 12.10Q4.91 11.97 4.91 11.92L4.91 11.92L4.91 11.92Q4.91 11.87 4.79 11.61L4.79 11.61L4.79 11.61Q4.70 11.49 4.63 11.30L4.63 11.30L4.63 11.30Q4.61 11.27 4.52 10.99L4.52 10.99L4.52 10.99Q4.47 10.89 4.44 10.63L4.44 10.63L4.27 11.27L4.27 11.27Q4.27 11.38 4.17 11.61L4.17 11.61L4.09 11.89L4.09 11.89Q3.53 13.23 3.44 13.36L3.44 13.36L3.44 13.36Q3.19 13.66 3.02 13.75L3.02 13.75L3.02 13.75Q2.86 13.85 2.52 13.80L2.52 13.80L2.52 13.80Q2.25 13.79 1.65 13.61L1.65 13.61L1.43 13.37L1.43 13.37Q1.29 13.23 1.26 13.03L1.26 13.03L1.26 13.03Q1.12 12.71 1.07 12.59L1.07 12.59L1.07 12.59Q1.02 12.46 0.97 12.11L0.97 12.11L0.97 11.76L0.97 11.76Q0.94 11.72 0.92 11.19L0.92 11.19L0.92 11.19Q0.90 10.96 0.90 10.92L0.90 10.92L0.91 10.82L0.91 10.82Q0.83 10.74 0.80 10.05L0.80 10.05L0.78 9.95L0.78 9.95Q0.78 9.91 0.77 9.81L0.77 9.81L0.77 9.81Q0.76 9.72 0.71 9.34L0.71 9.34L0.67 8.61L0.67 8.61Q0.70 8.47 0.67 8.25L0.67 8.25L0.67 7.98L0.67 7.98Q0.67 7.18 0.78 6.85L0.78 6.85L0.84 6.57L0.84 6.57Q0.84 6.51 0.87 6.41L0.87 6.41L0.87 6.41Q0.91 6.23 0.97 6.04L0.97 6.04L0.97 6.04Q1.02 5.85 1.05 5.62L1.05 5.62L1.05 5.62Q1.08 5.39 1.15 5.29L1.15 5.29L1.15 5.29Q1.22 5.18 1.37 5.03L1.37 5.03L1.37 5.03Q1.53 4.87 1.64 4.83L1.64 4.83L1.64 4.83Q1.89 4.79 1.96 4.79L1.96 4.79L1.96 4.79Q2.11 4.73 2.48 4.82L2.48 4.82L2.48 4.82Q2.59 4.82 2.81 4.93L2.81 4.93L2.81 4.93Q2.95 5.03 2.97 5.21L2.97 5.21L2.97 5.21Q3.00 5.40 2.93 5.87L2.93 5.87L2.93 5.87Q2.86 6.34 2.81 6.38L2.81 6.38L2.81 6.38Q2.88 6.45 2.83 6.73L2.83 6.73L2.83 6.73Q2.83 7.08 2.79 7.45L2.79 7.45L2.79 7.45Q2.76 7.83 2.76 7.92L2.76 7.92L2.76 8.09L2.76 8.09Q2.74 8.22 2.74 8.41L2.74 8.41L2.74 8.41Q2.70 8.64 2.70 9.11L2.70 9.11L2.70 9.11Q2.67 9.44 2.69 9.53L2.69 9.53L2.66 9.81L2.66 10.01L2.66 10.01Q2.66 10.18 2.67 10.25L2.67 10.25L2.67 10.25Q2.65 10.57 2.67 11.09L2.67 11.09L2.67 11.09Q2.69 11.61 2.74 11.61L2.74 11.61L3.21 10.82L3.21 10.82Q3.26 10.70 3.42 10.16L3.42 10.16L3.92 9.21L3.92 9.21Q4.07 8.76 4.10 8.71L4.10 8.71L4.20 8.47L4.20 8.47Q4.27 8.44 4.30 8.29L4.30 8.29L4.30 8.29Q4.34 8.13 4.40 7.91L4.40 7.91L4.40 7.91Q4.47 7.69 4.48 7.26L4.48 7.26L4.48 7.26Q4.49 6.83 4.61 6.61L4.61 6.61L4.61 6.61Q4.61 6.31 4.76 5.59L4.76 5.59L4.76 5.59Q4.79 5.36 4.79 5.25L4.79 5.25L4.79 5.25Q4.93 4.87 5.08 4.72L5.08 4.72L5.08 4.72Q5.24 4.58 5.66 4.67L5.66 4.67L5.66 4.67Q6.09 4.76 6.19 5.03ZM10.60 4.66L10.64 4.66L10.64 4.66Q11.58 4.66 11.96 5.04L11.96 5.04L11.96 5.04Q11.96 5.28 11.63 6.01L11.63 6.01L11.63 6.01Q11.58 6.24 11.45 6.38L11.45 6.38L11.27 6.57L11.27 6.57Q11.20 6.61 11.13 6.61L11.13 6.61L11.13 6.61Q10.63 6.73 10.35 6.41L10.35 6.41L10.35 6.41Q10.29 6.33 10.21 6.29L10.21 6.29L10.21 6.29Q10.14 6.24 10.09 6.03L10.09 6.03L10.09 6.03Q9.97 5.85 9.97 5.75L9.97 5.75L9.97 5.75Q9.94 4.89 10.60 4.66L10.60 4.66ZM10.44 7.97L10.53 7.97L10.53 7.97Q10.67 7.90 11.19 8.11L11.19 8.11L11.19 8.11Q11.24 8.16 11.35 8.22L11.35 8.22L11.58 8.40L11.58 8.40Q11.63 8.46 11.63 8.58L11.63 8.58L11.63 9.81L11.63 9.81Q11.63 10.09 11.61 10.32L11.61 10.32L11.61 10.40L11.61 10.40Q11.56 10.98 11.68 12.99L11.68 12.99L11.68 12.99Q11.72 13.38 11.49 13.47L11.49 13.47L11.49 13.47Q11.26 13.47 11.19 13.40L11.19 13.40L11.19 13.40Q11.13 13.37 11.09 13.37L11.09 13.37L10.99 13.37L10.91 13.40L10.91 13.40Q10.86 13.40 10.75 13.33L10.75 13.33L10.75 13.33Q10.64 13.27 10.61 13.20L10.61 13.20L10.61 13.20Q10.57 13.13 10.49 13.12L10.49 13.12L10.49 13.12Q10.33 13.06 10.32 12.91L10.32 12.91L10.32 12.91Q10.12 12.53 10.12 12.46L10.12 12.46L10.12 12.46Q10.11 12.39 10.07 12.31L10.07 12.31L10.00 11.09L10.00 11.09Q10.00 10.88 10.02 10.77L10.02 10.77L10.02 10.43L10.02 10.43Q10.04 10.28 10.05 9.86L10.05 9.86L10.05 9.86Q10.07 9.45 10.09 9.20L10.09 9.20L10.09 9.20Q10.07 8.83 10.07 8.71L10.07 8.71L10.07 8.71Q10.07 8.58 10.08 8.53L10.08 8.53L10.08 8.53Q9.93 8.37 10.09 8.11L10.09 8.11L10.09 8.11Q10.28 7.97 10.44 7.97L10.44 7.97ZM13.51 8.01L13.51 8.01L13.51 8.01Q13.89 7.55 14.55 7.52L14.55 7.52L14.55 7.52Q15.62 7.48 16.15 8.05L16.15 8.05L16.15 8.05Q16.67 8.62 16.71 9.18L16.71 9.18L16.71 9.18Q16.74 9.74 16.42 9.79L16.42 9.79L16.42 9.79Q15.96 9.80 15.82 9.66L15.82 9.66L15.82 9.66Q15.69 9.67 15.50 9.48L15.50 9.48L15.50 9.48Q15.41 9.44 15.27 9.16L15.27 9.16L15.12 8.81L15.12 8.81Q15.01 8.55 14.84 8.53L14.84 8.53L14.84 8.53Q14.63 8.61 14.63 8.95L14.63 8.95L14.63 8.95Q14.69 9.60 15.26 10.21L15.26 10.21L15.26 10.21Q15.26 10.21 15.28 10.24L15.28 10.24L15.28 10.24Q15.30 10.28 15.48 10.47L15.48 10.47L15.48 10.47Q16.59 11.69 16.63 12.43L16.63 12.43L16.63 12.43Q16.63 12.91 16.44 13.06L16.44 13.06L16.44 13.06Q15.83 13.78 14.87 13.80L14.87 13.80L14.87 13.80Q13.90 13.83 13.27 13.20L13.27 13.20L13.27 13.20Q13.10 13.03 13.10 12.88L13.10 12.88L13.10 12.88Q13.02 12.61 13.05 12.53L13.05 12.53L13.05 12.53Q13.01 12.14 13.05 11.94L13.05 11.94L13.05 11.94Q13.13 11.49 13.71 11.48L13.71 11.48L13.71 11.48Q13.92 11.48 13.97 11.73L13.97 11.73L13.97 11.73Q14.15 12.45 14.31 12.67L14.31 12.67L14.31 12.67Q14.48 12.89 14.84 12.88L14.84 12.88L14.84 12.88Q15.30 12.85 15.28 12.36L15.28 12.36L15.28 12.36Q15.26 11.87 14.81 11.45L14.81 11.45L14.81 11.45Q14.67 11.28 14.54 11.19L14.54 11.19L14.54 11.19Q14.41 11.10 14.36 11.06L14.36 11.06L14.36 11.06Q14.35 11.02 14.29 10.98L14.29 10.98L14.29 10.98Q14.01 10.75 13.59 10.23L13.59 10.23L13.59 10.23Q13.16 9.72 13.13 9.27L13.13 9.27L13.13 9.27Q13.08 8.47 13.51 8.01ZM19.52 7.99L19.52 7.99L19.36 9.90L19.45 9.70L19.45 9.70Q19.50 9.58 19.85 9.11L19.85 9.11L19.85 9.11Q19.85 9.07 20.29 8.37L20.29 8.37L20.52 8.09L20.65 7.90L20.65 7.90Q20.92 7.69 21.10 7.69L21.10 7.69L21.10 7.69Q21.48 7.63 21.91 7.91L21.91 7.91L21.91 7.91Q22.01 7.92 22.16 8.12L22.16 8.12L22.16 8.12Q22.40 8.30 22.37 8.64L22.37 8.64L22.37 8.64Q22.37 8.67 22.36 8.72L22.36 8.72L22.36 8.72Q22.09 10.91 22.08 11.78L22.08 11.78L22.08 11.78Q22.06 12.66 22.22 13.24L22.22 13.24L22.22 13.24Q22.33 13.73 21.85 13.93L21.85 13.93L21.85 13.93Q21.73 14.01 21.46 13.96L21.46 13.96L21.46 13.96Q21.22 13.96 21.10 13.89L21.10 13.89L21.10 13.89Q20.99 13.83 20.86 13.61L20.86 13.61L20.79 13.33L20.79 13.33Q20.73 13.22 20.73 13.02L20.73 13.02L20.68 12.61L20.68 12.61Q20.69 12.59 20.69 12.25L20.69 12.25L20.71 11.89L20.71 11.89Q20.66 11.69 20.72 11.12L20.72 11.12L20.75 10.51L20.75 10.16L20.75 10.16Q20.76 10.12 20.66 9.97L20.66 9.97L20.66 9.97Q20.30 10.25 19.85 11.84L19.85 11.84L19.49 12.96L19.49 12.96Q19.24 13.86 18.94 13.93L18.94 13.93L18.79 13.96L18.79 13.96Q18.59 13.96 18.26 13.85L18.26 13.85L18.26 13.85Q17.99 13.55 17.99 13.26L17.99 13.26L17.99 13.26Q18.02 13.20 18.00 13.13L18.00 13.13L18.00 13.13Q17.96 12.95 18.03 12.63L18.03 12.63L18.03 12.63Q18.02 12.59 18.02 12.52L18.02 12.52L18.03 12.31L18.03 12.31Q18.00 12.24 17.98 11.91L17.98 11.91L17.98 11.91Q17.95 11.58 17.98 11.41L17.98 11.41L17.98 11.41Q17.95 11.35 18.06 11.03L18.06 11.03L18.06 11.03Q17.95 10.86 17.93 10.65L17.93 10.65L17.93 10.65Q17.88 10.08 17.90 9.79L17.90 9.79L17.90 9.79Q17.92 9.51 17.92 9.25L17.92 9.25L17.92 9.25Q17.89 9.00 17.91 8.65L17.91 8.65L18.00 7.52L18.10 6.71L18.10 6.71Q18.10 6.61 18.04 6.40L18.04 6.40L18.04 6.40Q17.98 6.20 18.00 5.92L18.00 5.92L18.00 5.92Q18.03 5.64 18.07 5.56L18.07 5.56L18.07 5.56Q18.10 5.49 18.17 5.15L18.17 5.15L18.17 5.15Q18.17 4.87 18.23 4.73L18.23 4.73L18.31 4.48L18.31 4.48Q18.33 4.38 18.68 4.16L18.68 4.16L18.83 4.16L18.83 4.16Q19.38 4.20 19.63 4.34L19.63 4.34L19.63 4.34Q19.74 4.41 19.68 4.83L19.68 4.83L19.68 4.83Q19.66 5.42 19.64 5.56L19.64 5.56L19.64 5.56Q19.63 5.70 19.57 6.78L19.57 6.78L19.57 6.78Q19.52 7.85 19.52 7.99ZM25.72 9.74L25.80 9.66L25.80 9.66Q25.83 9.63 26.13 9.60L26.13 9.60L26.13 9.60Q26.43 9.56 26.84 9.35L26.84 9.35L26.84 9.35Q26.85 9.35 26.82 9.02L26.82 9.02L26.82 9.02Q26.78 8.43 26.75 8.18L26.75 8.18L26.75 8.18Q26.73 7.84 26.70 7.70L26.70 7.70L26.70 7.70Q26.70 7.43 26.49 6.59L26.49 6.59L25.87 8.68L25.87 8.68Q25.68 9.55 25.72 9.74L25.72 9.74ZM23.93 10.23L23.91 10.07L24.00 9.45L24.00 9.45Q24.00 9.27 24.05 9.09L24.05 9.09L24.05 9.09Q24.05 8.85 24.29 8.37L24.29 8.37L24.29 8.37Q24.29 8.34 24.42 8.01L24.42 8.01L24.42 8.01Q24.42 7.98 24.68 7.18L24.68 7.18L24.85 6.78L24.85 6.78Q24.85 6.72 24.92 6.56L24.92 6.56L24.92 6.56Q24.99 6.40 25.02 6.24L25.02 6.24L25.02 6.24Q25.06 6.08 25.12 5.92L25.12 5.92L25.12 5.92Q25.31 5.54 25.47 5.28L25.47 5.28L25.47 5.28Q25.76 4.72 26.56 4.77L26.56 4.77L27.01 4.82L27.01 4.82Q27.43 4.93 27.65 5.05L27.65 5.05L27.65 5.05Q27.97 5.18 28.08 5.33L28.08 5.33L28.08 5.33Q28.20 5.47 28.18 5.81L28.18 5.81L28.18 5.81Q28.20 5.98 28.27 7.27L28.27 7.27L28.27 7.27Q28.34 8.55 28.34 8.57L28.34 8.57L28.41 9.17L28.41 9.17Q28.41 9.25 28.71 11.19L28.71 11.19L29.02 12.17L29.02 12.17Q29.30 12.95 29.32 12.98L29.32 12.98L29.32 12.98Q29.34 13.02 29.44 13.29L29.44 13.29L29.44 13.29Q29.60 13.75 29.18 13.90L29.18 13.90L29.18 13.90Q28.80 13.96 28.62 13.83L28.62 13.83L28.62 13.83Q28.55 13.83 28.29 13.71L28.29 13.71L28.29 13.71Q28.27 13.64 28.13 13.57L28.13 13.57L28.13 13.57Q28.00 13.51 27.96 13.47L27.96 13.47L27.96 13.47Q27.80 13.43 27.68 13.03L27.68 13.03L27.68 13.03Q27.64 13.01 27.52 12.81L27.52 12.81L27.52 12.81Q27.43 12.61 27.47 12.49L27.47 12.49L27.47 12.49Q27.37 12.36 27.37 11.97L27.37 11.97L27.37 11.97Q27.24 11.76 27.24 11.31L27.24 11.31L27.24 11.31Q27.24 10.86 27.10 10.61L27.10 10.61L27.10 10.61Q26.39 10.93 25.58 10.96L25.58 10.96L25.58 10.96Q25.42 10.96 25.42 11.02L25.42 11.02L25.42 11.02Q25.42 11.14 25.34 11.47L25.34 11.47L25.10 13.01L25.10 13.01Q25.24 14.04 24.85 14.10L24.85 14.10L24.85 14.10Q24.74 14.10 24.48 14.15L24.48 14.15L24.48 14.15Q24.22 14.21 24.05 14.06L24.05 14.06L24.05 14.06Q23.73 13.87 23.60 13.68L23.60 13.68L23.60 13.68Q23.46 13.50 23.48 13.26L23.48 13.26L23.48 13.26Q23.49 13.06 23.55 12.42L23.55 12.42L23.55 12.42Q23.58 12.39 23.57 12.10L23.57 12.10L23.57 12.10Q23.56 11.82 23.60 11.66L23.60 11.66L23.83 10.79L23.83 10.79Q23.87 10.77 23.94 10.37L23.94 10.37L23.94 10.37Q23.93 10.35 23.93 10.23L23.93 10.23ZM31.96 9.41L31.96 9.46L31.95 10.05L31.95 10.50L31.98 11.03L31.98 11.03Q31.98 11.62 32.12 12.32L32.12 12.32L32.19 12.45L32.19 12.45Q32.19 12.29 32.23 12.18L32.23 12.18L32.23 12.18Q32.28 12.07 32.28 11.91L32.28 11.91L32.48 11.19L32.48 11.19Q32.48 11.14 32.55 11.00L32.55 11.00L32.55 11.00Q32.61 10.86 32.72 10.48L32.72 10.48L32.72 10.48Q32.84 10.09 32.87 9.81L32.87 9.81L32.87 9.81Q32.90 9.52 32.93 9.41L32.93 9.41L32.93 9.41Q32.96 9.30 32.91 9.10L32.91 9.10L32.98 8.53L32.98 8.53Q32.98 8.33 33.04 8.25L33.04 8.25L33.04 8.25Q33.63 8.16 33.81 8.15L33.81 8.15L33.81 8.15Q33.81 8.23 33.91 8.37L33.91 8.37L33.91 8.37Q33.91 8.43 34.01 8.62L34.01 8.62L34.06 8.88L34.06 8.88Q34.15 9.07 34.27 10.60L34.27 10.60L34.27 10.60Q34.29 11.09 34.54 11.96L34.54 11.96L34.54 11.96Q34.61 11.84 34.59 11.69L34.59 11.69L34.59 11.69Q34.68 11.61 34.68 11.24L34.68 11.24L34.82 10.86L35.08 9.42L35.14 8.81L35.25 8.37L35.25 8.37Q35.28 8.19 35.37 8.11L35.37 8.11L35.37 8.11Q35.46 8.04 35.67 8.05L35.67 8.05L36.02 8.05L36.02 8.05Q36.12 8.12 36.29 8.12L36.29 8.12L36.46 8.16L36.46 8.16Q36.44 8.33 36.43 8.54L36.43 8.54L36.43 8.54Q36.41 8.71 36.32 9.31L36.32 9.31L36.32 9.31Q36.15 11.31 36.06 11.72L36.06 11.72L36.06 11.72Q36.06 11.82 36.02 11.87L36.02 11.87L36.02 11.87Q36.01 12.07 35.83 12.82L35.83 12.82L35.83 12.82Q35.83 12.94 35.53 13.23L35.53 13.23L35.53 13.23Q35.43 13.40 35.24 13.44L35.24 13.44L35.24 13.44Q35.17 13.51 34.97 13.52L34.97 13.52L34.97 13.52Q34.78 13.55 34.57 13.47L34.57 13.47L34.57 13.47Q34.36 13.40 34.33 13.36L34.33 13.36L34.33 13.36Q34.19 13.23 33.98 13.17L33.98 13.17L33.77 13.09L33.77 13.09Q33.60 12.91 33.57 12.88L33.57 12.88L33.57 12.88Q33.52 12.80 33.47 12.47L33.47 12.47L33.47 12.47Q33.45 12.46 33.40 12.10L33.40 12.10L33.40 12.10Q33.24 12.71 33.24 12.78L33.24 12.78L33.24 12.78Q33.17 13.02 33.14 13.05L33.14 13.05L33.14 13.05Q33.12 13.09 33.12 13.15L33.12 13.15L33.12 13.15Q33.11 13.22 33.08 13.27L33.08 13.27L33.08 13.27Q33.08 13.36 32.99 13.45L32.99 13.45L32.99 13.45Q32.90 13.55 32.65 13.61L32.65 13.61L32.65 13.61Q32.40 13.68 31.99 13.62L31.99 13.62L31.82 13.64L31.82 13.64Q31.72 13.64 31.61 13.61L31.61 13.61L31.61 13.61Q31.44 13.50 31.37 13.33L31.37 13.33L31.37 13.33Q31.21 13.09 31.08 12.81L31.08 12.81L31.08 12.81Q31.00 12.73 30.86 12.25L30.86 12.25L30.86 12.25Q30.73 11.96 30.73 11.91L30.73 11.91L30.73 11.79L30.73 11.79Q30.67 11.73 30.61 11.45L30.61 11.45L30.61 11.45Q30.55 11.17 30.58 11.03L30.58 11.03L30.58 11.03Q30.53 10.98 30.53 10.74L30.53 10.74L30.53 10.74Q30.51 10.60 30.51 10.29L30.51 10.29L30.51 10.29Q30.46 9.77 30.41 9.62L30.41 9.62L30.41 9.62Q30.42 9.44 30.30 9.11L30.30 9.11L30.30 9.11Q30.18 8.48 30.23 8.39L30.23 8.39L30.23 8.39Q30.18 8.27 30.30 8.04L30.30 8.04L30.30 8.04Q30.30 7.97 30.65 7.64L30.65 7.64L30.65 7.64Q30.83 7.59 30.94 7.65L30.94 7.65L30.94 7.65Q31.05 7.71 31.19 7.73L31.19 7.73L31.68 7.87L31.68 7.87Q32.09 7.98 32.02 8.81L32.02 8.81L31.96 9.35L31.96 9.35Q31.96 9.37 31.96 9.41L31.96 9.41ZM40.39 9.42L40.39 9.42L40.39 9.42Q40.38 9.11 40.25 8.95L40.25 8.95L40.25 8.95Q40.12 8.79 39.79 8.76L39.79 8.76L39.79 8.76Q39.69 8.83 39.53 9.23L39.53 9.23L39.53 9.23Q39.37 9.63 39.33 10.08L39.33 10.08L39.33 10.08Q39.19 10.75 39.19 11.42L39.19 11.42L39.19 11.42Q39.20 12.11 39.41 12.43L39.41 12.43L39.41 12.43Q39.44 12.49 39.47 12.47L39.47 12.47L39.47 12.47Q39.54 12.47 39.69 12.19L39.69 12.19L39.69 12.19Q40.43 10.85 40.39 9.42ZM40.82 12.10L40.82 12.10L40.61 12.64L40.61 12.64Q40.61 12.67 40.21 13.24L40.21 13.24L40.21 13.24Q40.08 13.51 39.74 13.54L39.74 13.54L39.74 13.54Q39.40 13.57 39.07 13.47L39.07 13.47L39.07 13.47Q38.64 13.31 38.42 13.10L38.42 13.10L38.42 13.10Q38.19 12.89 37.97 12.40L37.97 12.40L37.97 12.40Q37.76 11.90 37.74 11.58L37.74 11.58L37.74 11.58Q37.67 11.12 37.67 10.99L37.67 10.99L37.67 10.65L37.67 10.65Q37.67 10.15 37.72 10.07L37.72 10.07L37.72 10.07Q37.73 10.01 37.79 9.77L37.79 9.77L37.79 9.77Q37.86 9.18 38.12 8.65L38.12 8.65L38.12 8.65Q38.64 7.63 39.19 7.60L39.19 7.60L39.26 7.60L39.26 7.60Q39.28 7.62 39.34 7.62L39.34 7.62L39.52 7.62L39.52 7.62Q40.01 7.66 40.12 7.70L40.12 7.70L40.12 7.70Q40.33 7.76 40.49 7.76L40.49 7.76L40.85 7.83L40.85 7.83Q41.02 7.81 41.29 7.90L41.29 7.90L41.29 7.90Q41.57 7.98 41.59 8.02L41.59 8.02L41.59 8.02Q41.61 8.06 41.66 8.33L41.66 8.33L41.66 8.33Q41.72 8.60 41.74 8.71L41.74 8.71L41.74 8.71Q41.76 8.83 41.78 8.96L41.78 8.96L41.78 8.96Q41.89 9.98 42.14 10.86L42.14 10.86L42.14 10.86Q42.15 10.91 42.17 10.99L42.17 10.99L42.17 10.99Q42.18 11.07 42.27 11.32L42.27 11.32L42.27 11.32Q42.35 11.56 42.39 11.73L42.39 11.73L42.39 11.73Q42.43 11.90 42.55 12.18L42.55 12.18L42.55 12.18Q42.63 12.39 42.80 12.67L42.80 12.67L42.80 12.67Q43.11 13.10 42.48 13.34L42.48 13.34L42.48 13.34Q42.39 13.37 42.18 13.37L42.18 13.37L42.18 13.37Q42.14 13.37 41.92 13.23L41.92 13.23L41.92 13.23Q41.78 13.23 41.65 13.08L41.65 13.08L41.54 13.05L41.54 13.05Q41.44 12.95 41.37 12.95L41.37 12.95L41.37 12.95Q41.34 12.92 40.87 11.82L40.87 11.82L40.87 11.82Q40.82 11.97 40.82 12.10ZM45.32 8.69L45.29 9.03L45.29 9.03Q45.29 9.25 45.27 9.42L45.27 9.42L45.27 9.42Q45.25 9.59 45.25 9.63L45.25 9.63L45.25 9.63Q45.25 10.07 45.21 10.27L45.21 10.27L45.21 10.27Q45.18 10.47 45.18 10.60L45.18 10.60L45.18 11.23L45.18 11.23Q45.18 12.04 45.23 12.20L45.23 12.20L45.23 12.20Q45.29 12.36 45.43 12.42L45.43 12.42L45.43 12.42Q45.58 12.46 45.67 12.40L45.67 12.40L45.67 12.40Q45.75 12.33 45.83 12.20L45.83 12.20L45.83 12.20Q45.91 12.07 45.95 11.89L45.95 11.89L45.95 11.89Q46.00 11.72 46.10 11.51L46.10 11.51L46.10 11.51Q46.20 11.31 46.22 11.22L46.22 11.22L46.22 11.22Q46.24 11.13 46.34 10.99L46.34 10.99L46.34 10.99Q46.54 10.23 46.56 9.24L46.56 9.24L46.56 8.79L46.56 8.79Q46.59 8.23 46.77 7.85L46.77 7.85L46.77 7.85Q46.87 7.63 47.35 7.49L47.35 7.49L47.56 7.48L47.56 7.48Q47.84 7.48 47.92 7.56L47.92 7.56L47.92 7.56Q48.01 7.97 47.94 8.71L47.94 8.71L47.94 9.67L47.94 9.67Q47.96 10.37 47.96 10.64L47.96 10.64L47.96 10.64Q47.95 10.74 47.98 12.29L47.98 12.29L47.98 12.29Q47.96 12.31 47.98 12.66L47.98 12.66L47.98 12.66Q47.99 12.88 47.94 13.64L47.94 13.64L47.94 13.64Q47.89 14.39 47.89 14.55L47.89 14.55L47.89 14.55Q47.74 15.40 47.55 15.72L47.55 15.72L47.55 15.72Q47.36 16.04 47.04 16.28L47.04 16.28L47.04 16.28Q46.82 16.51 46.24 16.59L46.24 16.59L46.24 16.59Q46.20 16.58 46.02 16.58L46.02 16.58L46.02 16.58Q45.18 16.49 44.93 16.24L44.93 16.24L44.93 16.24Q44.18 15.86 44.06 15.69L44.06 15.69L44.06 15.69Q43.95 15.51 43.92 15.36L43.92 15.36L43.92 15.36Q43.89 15.20 44.00 14.84L44.00 14.84L44.00 14.84Q44.21 14.57 44.55 14.74L44.55 14.74L44.55 14.74Q44.69 14.81 45.05 15.02L45.05 15.02L45.51 15.25L45.51 15.25Q45.61 15.33 45.71 15.26L45.71 15.26L45.71 15.26Q45.85 15.18 45.88 15.18L45.88 15.18L45.88 15.18Q46.12 14.98 46.34 14.56L46.34 14.56L46.34 14.56Q46.34 14.42 46.48 14.14L46.48 14.14L46.48 14.14Q46.48 13.86 46.65 13.31L46.65 13.31L46.65 13.16L46.65 13.16Q46.65 12.95 46.68 12.80L46.68 12.80L46.68 12.80Q46.70 12.66 46.70 12.57L46.70 12.57L46.70 12.57Q46.59 12.78 46.52 12.96L46.52 12.96L46.52 12.96Q46.45 13.15 46.35 13.27L46.35 13.27L46.35 13.27Q46.34 13.36 46.06 13.44L46.06 13.44L45.54 13.45L45.54 13.45Q45.54 13.44 45.46 13.44L45.46 13.44L45.25 13.43L45.25 13.43Q44.51 13.43 44.31 13.23L44.31 13.23L44.31 13.23Q44.21 13.10 44.07 12.99L44.07 12.99L44.07 12.99Q43.95 12.84 43.92 12.60L43.92 12.60L43.92 12.60Q43.88 12.56 43.86 12.36L43.86 12.36L43.86 12.21L43.83 12.04L43.83 12.04Q43.85 12.01 43.81 11.84L43.81 11.84L43.81 11.84Q43.78 11.68 43.78 11.30L43.78 11.30L43.78 11.13L43.78 11.13Q43.78 9.88 43.81 9.83L43.81 9.83L43.81 9.83Q43.85 9.74 43.85 9.67L43.85 9.67L43.85 9.67Q43.82 9.60 43.86 9.52L43.86 9.52L43.89 9.32L44.03 8.89L44.03 8.89Q44.03 8.83 44.11 8.54L44.11 8.54L44.11 8.54Q44.20 8.46 44.21 8.34L44.21 8.34L44.21 8.34Q44.27 8.08 44.27 7.98L44.27 7.98L44.27 7.98Q44.28 7.88 44.39 7.71L44.39 7.71L44.39 7.71Q44.56 7.59 44.89 7.62L44.89 7.62L44.89 7.62Q45.22 7.66 45.46 7.91L45.46 7.91L45.30 8.53L45.30 8.53Q45.32 8.62 45.32 8.69L45.32 8.69Z"></path></g><!----><g data-v-423bf9ae="" id="916a478c-f167-4fa0-b12c-1df707c4a13b" transform="matrix(1.0764109293619792,0,0,1.0764109293619792,-2.8396102043880163,-1.293152185253959)" stroke="none" fill="#ffffff"><switch><g><path d="M53.218 30.855c-.627-.189-1.419.59-1.77 1.743-.35 1.153-.124 2.241.506 2.432.626.191 1.42-.59 1.768-1.744.35-1.152.125-2.241-.504-2.431zm-.002 2.279c-.194.639-.633 1.073-.979.968-.351-.107-.477-.711-.281-1.351.194-.639.635-1.072.982-.967.349.107.472.711.278 1.35zM71.295 8.198s-1.047-3.309-1.819-4.617c-3.335-5.642-4.588 5.388-4.934 9.589.304.021.608.065.911.133 1.493-9.911 5.842-5.105 5.842-5.105z"></path><path d="M74.646 32.521c2.535-2.244-.1-4.585-.1-4.585l.294-3.512c.27-1.188.281-1.956.157-2.456.002.006.004.011.004.017-.039-.09-.338-1.583-5.396.91 0 0 1.408-1.041 2.793-1.583-2.601-4.424-4.997-6.355-7.097-6.861a5.106 5.106 0 0 0-.845-.133c-.106-.006-.215-.014-.319-.014-4.63 0-7.54 6.706-7.54 6.706-1.796-2.731-3.381-3.238-4.481-3.238-.393 0-.725.064-.982.116-.976.195 2.342 3.414 2.342 3.414.39 1.464-1.562 10.243-1.562 10.243s0 1.045.72 1.045c.103 0 .221-.021.354-.069 1.074-.39 2.146-1.756 2.146-1.756-3.071 12.65 1.504 12.474 4.876 12.584 6.554.216 7.835.536 10.146 1.658 6.097 2.961 1.347 6.434-.229 6.434-.35 0-.544-.17-.429-.557.097-.322.294-.425.502-.425.364 0 .769.306.769.306-.211-1.051-.614-1.469-1.019-1.469-.415 0-.835.437-1.056 1.076-.688 1.983.229 2.709 1.544 2.709 1.311 0 3.016-.723 3.918-1.636 2.57-2.606-.098-6.536-.098-6.536.393.042.757.061 1.091.061 8.427.001-.503-12.449-.503-12.449zM59.28 23.937s-1.317-8.292 5.853-2.292c0-.001-5.951-3.952-5.853 2.292zm5.868 4.837c-.188.675-1.168 2.184-2.744.582-.996-1.014-2.078-2.662-1.497-5.489.582-2.828 2.911-1.747 3.66 0 .747 1.747.914 3.717.581 4.907zm5.388 1.08c-1.244.868-1.708-.256-1.75-.728-.072-.832.284-2.12.999-3.186.713-1.067 2.394-1.495 2.429.455.036 1.95-.888 2.909-1.678 3.459z"></path><path d="M73.495 21.082c.089 0 .216-.013.362-.013.404 0 .944.108 1.14.899-.26-1.215-1.42-1.117-2.6-.656a.037.037 0 0 1 .007.012s.646-.242 1.091-.242zM80.211 46.433c-1.193-.097-2.666.052-4.101.194.499 1.638.641 3.835-1.132 5.631-1.132 1.146-3.126 1.979-4.74 1.979-1.391 0-2.108-.597-2.466-1.097-.562-.791-.618-1.848-.17-3.144.396-1.143 1.219-1.854 2.147-1.854.389 0 1.205.141 1.754 1.205.242-.253.432-.542.498-.845.234-1.074-1.564-2.075-2.349-2.456-2.01-.976-3.041-1.324-9.68-1.543l-.246-.008a19.626 19.626 0 0 1-1.587-.094l-.609 1.561S44.399 52.15 43.355 62.26c-.352 3.406-.942 10.787 8.014 11.105 2.174.077 5.235 1.525 6.161 6.142.524 2.616 1.561 17.308-4.489 9.687-3.226-4.065-3.309-11.492-20.507-2.045 1.702-.895 10.754-5.103 16.728 2.997 6.615 8.97 13.229 3.55 16.302 0 3.069-3.552 18.663-2.135 17.719-21.033 0 0 7.015 2.316 10.952-1.666 3.777-3.821 6.967-19.279-14.024-21.014z"></path><g><path clip-rule="evenodd" d="M3.009 88.054c.269-.993 1.327-1.275 2.323-1.331.374-.02.75-.058 1.123-.03 2.321.166 2.582.431 2.81 2.765.013.123.062.244.174.658.539-.531 1.471-2.83 5.173-3.674-.319-.563-.754-1.257.043-1.808.247-.171.835-.157 1.07.024.675.526.376 1.186-.089 1.835.309.152.533.277.766.379 1.107.482 2.114 1.058 2.917 2.028.315.382 1.07.561 1.62.554.92-.011 1.861-.155 2.748-.406a21.652 21.652 0 0 0 3.309-1.227c1.132-.533 2.288-.412 3.451-.349.188.011.815.466.998.59-.13.178-.685.247-.847.282-3.239.68-5.515 2.995-8.107 4.766-1.688 1.152-3.421 2.185-5.22 2.555.398.488.822.896 1.295 1.417.521.574.509 1.046-.216 1.338-1.164.523-5.171.645-6.814.158-.797-.259-.872-.779-.262-1.362.534-.509 1.085-.998 1.684-1.55-1.746-.412-3.124-1.295-4.058-2.818-.668.553-1.198 1.347-2.009.617-.74-.665-.285-1.335.3-1.989-.683-.257-1.284-.475-1.877-.709-.925-.371-2.059-.697-2.305-1.746a2.002 2.002 0 0 1 0-.967zm5.255 3.169c.018-1.409-.714-3.155-1.778-3.334-.286-.051-2.351-.041-1.277 1.021.955.774 1.956 1.49 3.055 2.313z"></path></g></g></switch></g><!----></svg>