<svg width="330" height="93" viewBox="0 0 330 93" fill="none" xmlns="http://www.w3.org/2000/svg">
<path d="M127.874 21.3392C128.035 22.4012 127.986 23.7688 127.729 25.4422C127.729 25.9249 127.681 26.4237 127.584 26.9386C127.262 28.2902 127.101 29.1912 127.101 29.6417C127.101 30.2531 126.973 31.6047 126.715 33.6964C126.619 35.2089 126.57 37.5741 126.57 40.7922C126.57 43.978 126.747 46.7294 127.101 49.0464C127.487 51.3312 127.841 52.5058 128.163 52.5701C128.517 52.6345 128.839 52.377 129.129 51.7978C129.096 51.5725 129.241 50.9933 129.563 50.0601C129.949 47.6465 130.4 45.5227 130.915 43.6884C131.397 41.8541 131.671 40.6634 131.735 40.1164C131.767 39.7946 131.896 38.9418 132.121 37.5581C132.54 36.1099 132.781 34.5975 132.845 33.0206V32.4897C133.039 30.044 133.135 28.3223 133.135 27.3247C133.135 26.3272 133.119 25.4905 133.087 24.8147L133.135 22.3529C133.167 21.7415 133.376 21.2427 133.763 20.8565C133.795 20.8565 133.956 20.7922 134.245 20.6634C134.535 20.5025 134.825 20.3738 135.114 20.2773C135.404 20.1486 135.886 20.1647 136.562 20.3256C137.238 20.4865 137.689 20.6474 137.914 20.8083C138.139 20.9692 138.332 21.1622 138.493 21.3875C138.622 21.6128 138.734 21.8058 138.831 21.9667C138.895 22.1276 138.976 22.3851 139.072 22.7391C139.201 23.5114 139.346 24.9917 139.507 27.1799C139.635 29.4004 139.668 30.8485 139.603 31.5243C139.571 32.2 139.555 33.0367 139.555 34.0343L139.507 34.9515C139.507 35.5629 139.394 37.188 139.169 39.8268C138.944 42.4334 138.734 44.0585 138.541 44.7021C138.445 45.5066 138.397 46.0054 138.397 46.1984L138.203 47.3569C138.203 47.4856 138.187 47.6144 138.155 47.7431C138.091 47.8718 137.946 48.4028 137.721 49.336C137.495 50.2692 137.367 50.768 137.335 50.8324L136.997 52.3288C136.096 54.4205 135.532 55.5951 135.307 55.8525C135.307 56.0778 134.857 56.6892 133.956 57.6868L132.845 59.0866L132.314 59.521C130.577 61.2588 128.614 61.3875 126.425 59.9072L124.736 58.7005C124.479 58.2821 124.125 57.8799 123.674 57.4937C123.642 57.3328 123.433 57.0753 123.047 56.7214C122.693 56.3352 122.387 55.9169 122.129 55.4663C121.84 55.048 121.695 54.7584 121.695 54.5975C121.695 54.4366 121.502 53.9378 121.116 53.1011C120.826 52.7149 120.569 52.2161 120.343 51.6047C120.279 51.5082 120.102 51.0094 119.812 50.1083C119.652 49.7865 119.523 49.2073 119.426 48.3706L118.606 51.4599C118.606 51.8139 118.445 52.3609 118.123 53.1011L117.737 54.4527C115.935 58.7648 114.889 61.1301 114.599 61.5484C113.795 62.5138 113.119 63.1413 112.572 63.4309C112.057 63.7527 111.253 63.8332 110.158 63.6723C109.29 63.6401 107.89 63.3344 105.959 62.7552L104.897 61.5967C104.446 61.1461 104.173 60.5991 104.076 59.9555C103.626 58.9257 103.32 58.2177 103.159 57.8316C102.998 57.4132 102.837 56.6409 102.677 55.5146V53.8251C102.58 53.6964 102.5 52.7793 102.435 51.0737C102.371 50.3336 102.339 49.8992 102.339 49.7704L102.387 49.2877C102.129 49.0303 101.952 47.7914 101.856 45.5709L101.759 45.0882C101.759 44.9595 101.743 44.7342 101.711 44.4124C101.679 44.1228 101.582 43.3666 101.421 42.1437L101.228 38.62C101.325 38.1695 101.325 37.5902 101.228 36.8823V35.579C101.228 33.0046 101.405 31.1864 101.759 30.1244L102.049 28.7729C102.049 28.5798 102.097 28.3223 102.194 28.0005C102.323 27.4213 102.483 26.826 102.677 26.2145C102.837 25.6031 102.966 24.9273 103.063 24.1872C103.159 23.447 103.32 22.9161 103.545 22.5943C103.771 22.2403 104.125 21.8219 104.607 21.3392C105.122 20.8243 105.557 20.5025 105.911 20.3738C106.715 20.2451 107.23 20.1807 107.455 20.1807C107.938 19.9877 108.775 20.0359 109.965 20.3256C110.319 20.3256 110.85 20.5025 111.558 20.8565C112.009 21.1783 112.266 21.6288 112.331 22.2081C112.427 22.8195 112.363 23.8815 112.137 25.3939C111.912 26.9064 111.719 27.727 111.558 27.8557C111.784 28.081 111.816 28.6441 111.655 29.5452C111.655 30.6715 111.59 31.83 111.462 33.0206C111.365 34.2435 111.317 34.9997 111.317 35.2893V36.1099C111.253 36.5283 111.22 37.0432 111.22 37.6546C111.092 38.3947 111.027 39.521 111.027 41.0335C110.931 42.0955 110.915 42.7712 110.979 43.0609L110.834 44.4124V45.3778C110.834 45.9249 110.85 46.3111 110.882 46.5363C110.818 47.5661 110.818 48.9177 110.882 50.591C110.947 52.2644 111.059 53.1011 111.22 53.1011L113.489 49.2877C113.65 48.9016 113.988 47.8396 114.503 46.1019L116.916 41.5162C117.399 40.0681 117.689 39.2636 117.785 39.1027L118.268 37.9442C118.493 37.8477 118.654 37.5581 118.751 37.0753C118.879 36.5605 119.04 35.949 119.233 35.2411C119.458 34.5331 119.587 33.4873 119.619 32.1035C119.652 30.7198 119.861 29.6739 120.247 28.9659C120.247 28.0005 120.488 26.3593 120.971 24.0424C121.067 23.3022 121.116 22.7552 121.116 22.4012C121.566 21.1783 122.033 20.3255 122.516 19.8428C123.03 19.3923 123.964 19.3119 125.315 19.6015C126.699 19.8911 127.552 20.4704 127.874 21.3392ZM149.161 19.5532H149.354C152.379 19.5532 154.503 20.1646 155.726 21.3875C155.726 22.1598 155.195 23.7206 154.133 26.0697C153.972 26.8099 153.682 27.4052 153.264 27.8557L152.395 28.7729C152.17 28.9016 151.944 28.9659 151.719 28.9659C150.11 29.3521 148.855 29.0303 147.954 28.0005C147.761 27.7431 147.536 27.55 147.278 27.4213C147.053 27.2604 146.86 26.842 146.699 26.1663C146.313 25.587 146.12 25.1365 146.12 24.8147C146.023 22.0472 147.037 20.2934 149.161 19.5532ZM148.388 35.5307H148.823C149.273 35.3054 150.335 35.5307 152.009 36.2065C152.17 36.3674 152.427 36.5444 152.781 36.7375L153.891 37.6063C154.052 37.7994 154.133 38.089 154.133 38.4752V44.4124C154.133 45.3135 154.1 46.1341 154.036 46.8742V47.2604C153.875 49.1268 153.988 53.2942 154.374 59.7624C154.503 61.0174 154.197 61.7897 153.457 62.0794C152.717 62.0794 152.234 61.9667 152.009 61.7415C151.816 61.6449 151.655 61.5967 151.526 61.5967H151.043L150.657 61.7415C150.496 61.7415 150.239 61.6288 149.885 61.4036C149.531 61.2105 149.306 61.0013 149.209 60.7761C149.08 60.5508 148.887 60.4221 148.63 60.3899C148.115 60.1968 147.841 59.8589 147.809 59.3762C147.166 58.1534 146.844 57.4293 146.844 57.2041C146.812 56.9788 146.731 56.7375 146.602 56.48L146.265 50.591C146.265 49.9153 146.297 49.4004 146.361 49.0464V47.4052C146.425 46.9225 146.474 46.0054 146.506 44.6538C146.57 43.3344 146.635 42.2725 146.699 41.4679C146.635 40.2773 146.602 39.4889 146.602 39.1027C146.602 38.6844 146.619 38.3947 146.651 38.2338C146.168 37.719 146.184 37.0432 146.699 36.2065C147.31 35.756 147.874 35.5307 148.388 35.5307ZM163.207 35.7238C164.43 34.2435 166.104 33.4551 168.228 33.3585C171.671 33.2298 174.245 34.0826 175.951 35.9169C177.624 37.7511 178.525 39.5693 178.654 41.3714C178.751 43.1735 178.284 44.155 177.254 44.3159C175.774 44.3481 174.808 44.1389 174.358 43.6884C173.94 43.7206 173.425 43.4309 172.813 42.8195C172.524 42.6908 172.154 42.1759 171.703 41.2749L170.979 39.5854C170.625 38.7487 170.174 38.2982 169.627 38.2338C168.952 38.4913 168.614 39.1671 168.614 40.2612C168.807 42.3529 169.821 44.3803 171.655 46.3432C171.655 46.3432 171.687 46.3915 171.751 46.4881C171.816 46.6168 172.137 46.9869 172.717 47.5983C176.289 51.5243 178.139 54.6779 178.268 57.0593C178.268 58.6039 177.962 59.6176 177.351 60.1003C175.388 62.4173 172.862 63.6079 169.772 63.6723C166.651 63.7688 164.076 62.8034 162.049 60.7761C161.502 60.229 161.228 59.7141 161.228 59.2314C160.971 58.3626 160.89 57.7994 160.987 57.542C160.858 56.2869 160.858 55.3376 160.987 54.694C161.244 53.2459 162.306 52.5058 164.173 52.4736C164.849 52.4736 165.267 52.8758 165.428 53.6803C166.007 55.9973 166.554 57.5098 167.069 58.2177C167.616 58.9257 168.469 59.2636 169.627 59.2314C171.108 59.1349 171.816 58.2982 171.751 56.7214C171.687 55.1445 170.931 53.6803 169.483 52.3288C169.032 51.7817 168.598 51.3634 168.179 51.0737C167.761 50.7841 167.471 50.5749 167.31 50.4462C167.278 50.3175 167.166 50.1888 166.973 50.0601C166.072 49.3199 164.945 48.1132 163.594 46.4398C162.21 44.7986 161.47 43.254 161.373 41.8058C161.212 39.2314 161.824 37.2041 163.207 35.7238ZM192.218 35.6272L191.446 44.8469L191.88 43.8815C192.041 43.4953 192.685 42.546 193.811 41.0335C193.811 40.9048 194.519 39.7141 195.935 37.4615L197.045 36.1099L197.672 35.1928C198.541 34.517 199.265 34.1791 199.845 34.1791C201.067 33.986 202.371 34.34 203.755 35.2411C204.076 35.2733 204.479 35.6111 204.961 36.2548C205.734 36.834 206.072 37.6707 205.975 38.7648C205.975 38.8614 205.959 38.9901 205.927 39.151C205.058 46.1984 204.607 51.122 204.575 53.9217C204.511 56.7535 204.736 59.1027 205.251 60.9692C205.605 62.546 205.01 63.6562 203.465 64.2998C203.079 64.5572 202.451 64.6055 201.582 64.4446C200.81 64.4446 200.231 64.332 199.845 64.1067C199.491 63.9136 199.104 63.4631 198.686 62.7552L198.348 61.4036C198.155 61.0496 198.059 60.5508 198.059 59.9072L197.817 57.9281C197.849 57.8638 197.866 57.2845 197.866 56.1904L197.962 54.4527C197.801 53.8091 197.817 52.5701 198.01 50.7358L198.155 47.7914V46.1019C198.187 45.9732 198.043 45.6675 197.721 45.1848C196.562 46.0858 195.259 49.0947 193.811 54.2113L192.073 59.6176C191.269 62.5138 190.384 64.0745 189.418 64.2998L188.694 64.4446C188.051 64.4446 187.198 64.2676 186.136 63.9136C185.267 62.9482 184.833 61.9989 184.833 61.0657C184.929 60.8726 184.945 60.6634 184.881 60.4382C184.752 59.8589 184.8 59.0544 185.026 58.0247C184.993 57.8959 184.977 57.719 184.977 57.4937L185.026 56.48C184.929 56.2548 184.849 55.6111 184.784 54.5492C184.688 53.4873 184.688 52.6827 184.784 52.1357C184.688 51.9426 184.816 51.3312 185.17 50.3014C184.816 49.7543 184.607 49.1429 184.543 48.4671C184.382 46.6329 184.334 45.2491 184.398 44.3159C184.463 43.4149 184.495 42.546 184.495 41.7093C184.398 40.9048 184.382 39.9394 184.446 38.8131L184.881 33.3585L185.364 29.4486C185.364 29.1268 185.267 28.628 185.074 27.9523C184.881 27.3087 184.816 26.5363 184.881 25.6353C184.977 24.7342 185.09 24.155 185.219 23.8976C185.315 23.6723 185.476 23.0126 185.701 21.9185C185.701 21.0174 185.798 20.3416 185.991 19.8911L186.377 18.6844C186.442 18.3626 187.037 17.8477 188.163 17.1397H188.887C190.657 17.2684 191.944 17.5581 192.749 18.0086C193.103 18.2338 193.183 19.0223 192.99 20.3738C192.926 22.2725 192.862 23.447 192.797 23.8976C192.765 24.3481 192.652 26.3111 192.459 29.7865C192.298 33.2298 192.218 35.1767 192.218 35.6272ZM222.146 44.0745L222.532 43.6884C222.628 43.5918 223.159 43.4953 224.125 43.3988C225.09 43.27 226.232 42.8678 227.552 42.192C227.584 42.192 227.552 41.661 227.455 40.5991C227.327 38.7005 227.214 37.3489 227.117 36.5444C227.053 35.4503 226.973 34.6779 226.876 34.2274C226.876 33.3585 226.538 31.5725 225.862 28.8694L222.87 38.9579C222.258 41.7576 222.017 43.4631 222.146 44.0745ZM213.505 46.4398L213.409 45.6675L213.843 42.6747C213.843 42.0955 213.923 41.5162 214.084 40.937C214.084 40.1646 214.471 39.0062 215.243 37.4615C215.243 37.365 215.452 36.7857 215.87 35.7238C215.87 35.6272 216.289 34.2918 217.125 31.7173L217.946 29.7865C217.946 29.5935 218.059 29.2395 218.284 28.7246C218.509 28.2097 218.67 27.6948 218.767 27.1799C218.895 26.6651 219.056 26.1502 219.249 25.6353C219.861 24.4124 220.424 23.3827 220.939 22.546C221.872 20.7439 223.626 19.9233 226.2 20.0842L228.372 20.3256C229.724 20.6795 230.754 21.0496 231.462 21.4358C232.491 21.8541 233.183 22.3046 233.537 22.7873C233.923 23.2379 234.084 24.0102 234.02 25.1043C234.084 25.6514 234.229 28.0005 234.454 32.1518C234.68 36.2708 234.792 38.3626 234.792 38.4269L235.13 41.3231C235.13 41.5806 235.613 44.8308 236.578 51.0737L238.075 55.8042C238.976 58.3143 239.458 59.6176 239.523 59.7141C239.587 59.8428 239.78 60.3416 240.102 61.2105C240.617 62.6908 240.199 63.6723 238.847 64.155C237.624 64.3481 236.723 64.2354 236.144 63.8171C235.919 63.8171 235.388 63.624 234.551 63.2379C234.487 63.0126 234.229 62.7873 233.779 62.5621C233.36 62.369 233.087 62.2081 232.958 62.0794C232.443 61.9506 231.993 61.2427 231.607 59.9555C231.478 59.8911 231.22 59.5371 230.834 58.8935C230.545 58.2499 230.464 57.735 230.593 57.3489C230.271 56.9305 230.11 56.0939 230.11 54.8388C229.692 54.163 229.483 53.1011 229.483 51.653C229.483 50.2049 229.257 49.0786 228.807 48.2741C226.522 49.3038 224.076 49.867 221.47 49.9635C220.955 49.9635 220.697 50.0601 220.697 50.2531C220.697 50.6393 220.569 51.3634 220.311 52.4253L219.153 59.8589C219.603 63.1735 219.201 64.9273 217.946 65.1204C217.592 65.1204 216.997 65.2008 216.16 65.3617C215.323 65.5548 214.631 65.41 214.084 64.9273C213.055 64.3159 212.331 63.7045 211.912 63.093C211.462 62.5138 211.269 61.838 211.333 61.0657C211.365 60.4221 211.478 59.0705 211.671 57.011C211.767 56.9144 211.8 56.3996 211.767 55.4663C211.735 54.5653 211.784 53.8573 211.912 53.3424L213.022 49.1429C213.151 49.0786 213.328 48.4028 213.553 47.1156C213.521 47.0512 213.505 46.8259 213.505 46.4398ZM252.266 42.4816V42.723L252.218 45.5709V47.7431L252.363 50.3014C252.363 52.2 252.588 54.2757 253.039 56.5283L253.376 57.1558C253.376 56.6409 253.441 56.2065 253.569 55.8525C253.73 55.4985 253.811 55.0641 253.811 54.5492L254.776 51.0737C254.776 50.9128 254.889 50.6071 255.114 50.1566C255.307 49.7061 255.581 48.8694 255.935 47.6465C256.321 46.3915 256.562 45.3135 256.659 44.4124C256.755 43.4792 256.852 42.8356 256.948 42.4816C257.045 42.1276 257.013 41.6289 256.852 40.9852L257.19 38.2338C257.19 37.5902 257.286 37.1397 257.479 36.8823C259.378 36.5926 260.617 36.4317 261.196 36.3996C261.196 36.657 261.357 37.011 261.679 37.4615C261.679 37.6546 261.84 38.0568 262.162 38.6683L262.403 39.9233C262.693 40.5347 263.03 43.3022 263.417 48.2258C263.481 49.8026 263.915 51.9909 264.72 54.7906C264.945 54.4044 265.026 53.97 264.961 53.4873C265.251 53.2298 265.396 52.5058 265.396 51.3151L266.072 49.4808L267.327 42.5299L267.616 39.5854L268.147 37.4615C268.244 36.8823 268.437 36.4639 268.726 36.2065C269.016 35.9812 269.499 35.8847 270.174 35.9169H271.864C272.186 36.1421 272.62 36.2548 273.167 36.2548L273.988 36.4478C273.923 36.9949 273.875 37.6063 273.843 38.2821C273.779 38.8292 273.602 40.0681 273.312 41.9989C272.765 48.435 272.347 52.3127 272.057 53.6321C272.057 53.9539 271.993 54.1952 271.864 54.3561C271.832 54.9997 271.526 56.5283 270.947 58.9418C270.947 59.328 270.464 59.9877 269.499 60.9209C269.177 61.4679 268.71 61.8058 268.099 61.9346C267.874 62.1598 267.439 62.2885 266.796 62.3207C266.184 62.4173 265.541 62.3368 264.865 62.0794C264.189 61.8541 263.803 61.6771 263.706 61.5484C263.256 61.1301 262.693 60.8243 262.017 60.6313L261.003 60.2451C260.456 59.6659 260.134 59.328 260.038 59.2314C259.877 58.974 259.716 58.3143 259.555 57.2523C259.491 57.2202 259.378 56.6248 259.217 55.4663C258.702 57.4293 258.445 58.5235 258.445 58.7487C258.22 59.521 258.059 59.9555 257.962 60.052C257.898 60.1807 257.866 60.3416 257.866 60.5347C257.833 60.76 257.769 60.9531 257.672 61.114C257.672 61.4036 257.528 61.6932 257.238 61.9828C256.948 62.3046 256.401 62.5621 255.597 62.7552C254.792 62.9804 253.73 62.9965 252.411 62.8034L251.59 62.9C251.269 62.9 250.931 62.8517 250.577 62.7552C250.03 62.4012 249.644 61.9506 249.418 61.4036C248.903 60.6313 248.437 59.7946 248.018 58.8935C247.761 58.6361 247.407 57.735 246.956 56.1904C246.538 55.2572 246.329 54.7101 246.329 54.5492V53.97C246.136 53.7769 245.943 53.2298 245.75 52.3288C245.557 51.4277 245.508 50.7519 245.605 50.3014C245.444 50.1405 245.364 49.6739 245.364 48.9016C245.299 48.4511 245.267 47.727 245.267 46.7294C245.106 45.056 244.945 43.978 244.784 43.4953C244.816 42.9161 244.639 42.0955 244.253 41.0335C243.867 39.0062 243.755 37.8477 243.915 37.5581C243.755 37.1719 243.867 36.6087 244.253 35.8686C244.253 35.6433 244.816 34.9997 245.943 33.9378C246.522 33.7769 246.989 33.793 247.343 33.986C247.697 34.1791 248.099 34.3079 248.549 34.3722L250.915 35.048C252.234 35.402 252.781 36.9144 252.556 39.5854L252.266 42.192C252.266 42.2564 252.266 42.3529 252.266 42.4816ZM292.958 42.5299C292.926 41.5323 292.701 40.7761 292.282 40.2612C291.864 39.7463 291.124 39.4406 290.062 39.3441C289.74 39.5693 289.322 40.3255 288.807 41.6128C288.292 42.9 287.97 44.2676 287.841 45.7157C287.391 47.8718 287.166 50.0279 287.166 52.184C287.198 54.4044 287.552 56.0295 288.228 57.0593C288.324 57.2523 288.421 57.3167 288.517 57.2523C288.742 57.2523 289.096 56.8018 289.579 55.9008C291.96 51.5886 293.087 47.1317 292.958 42.5299ZM295.034 55.4663L294.02 58.0729C294.02 58.1695 293.376 59.1349 292.089 60.9692C291.671 61.838 290.915 62.3207 289.821 62.4173C288.726 62.5138 287.648 62.4012 286.586 62.0794C285.203 61.5645 284.157 60.9692 283.449 60.2934C282.709 59.6176 281.985 58.4913 281.277 56.9144C280.601 55.3054 280.231 53.986 280.166 52.9563C279.941 51.476 279.829 50.5267 279.829 50.1083V48.4671C279.829 46.8581 279.909 45.9249 280.07 45.6675C280.102 45.4744 280.215 44.9917 280.408 44.2194C280.633 42.3207 281.164 40.5186 282.001 38.8131C283.674 35.5307 285.396 33.8412 287.166 33.7447H287.504C287.568 33.8091 287.697 33.8412 287.89 33.8412H288.759C290.335 33.97 291.301 34.0987 291.655 34.2274C292.331 34.4205 292.926 34.517 293.441 34.517L295.179 34.8549C295.726 34.7906 296.434 34.9032 297.302 35.1928C298.203 35.4502 298.686 35.6433 298.751 35.7721C298.815 35.9008 298.928 36.3996 299.088 37.2684C299.281 38.1373 299.41 38.7487 299.475 39.1027C299.539 39.4889 299.603 39.8911 299.668 40.3095C300.022 43.5918 300.601 46.649 301.405 49.4808C301.438 49.6417 301.486 49.8509 301.55 50.1083C301.582 50.3658 301.743 50.8967 302.033 51.7013C302.29 52.4736 302.483 53.1333 302.612 53.6803C302.741 54.2274 302.998 54.9515 303.384 55.8525C303.642 56.5283 304.044 57.3167 304.591 58.2177C305.589 59.6015 305.074 60.6795 303.047 61.4519C302.757 61.5484 302.274 61.5967 301.598 61.5967C301.47 61.5967 301.051 61.3714 300.343 60.9209C299.893 60.9209 299.458 60.6795 299.04 60.1968L298.509 60.052C298.187 59.7302 297.914 59.5693 297.689 59.5693C297.592 59.4728 296.788 57.6546 295.275 54.1148C295.114 54.5975 295.034 55.048 295.034 55.4663ZM316.755 39.0062L316.611 40.6474C316.611 41.3553 316.578 41.9828 316.514 42.5299C316.45 43.077 316.417 43.4149 316.417 43.5436C316.417 44.9595 316.353 45.9893 316.224 46.6329C316.128 47.2765 316.08 47.8074 316.08 48.2258V51.2668C316.08 53.8734 316.16 55.4342 316.321 55.949C316.514 56.4639 316.836 56.8179 317.286 57.011C317.769 57.1397 318.155 57.1075 318.445 56.9144C318.702 56.6892 318.96 56.3674 319.217 55.949C319.475 55.5307 319.668 55.0319 319.796 54.4527C319.957 53.9056 320.199 53.2942 320.52 52.6184C320.842 51.9748 321.035 51.5082 321.1 51.2186C321.164 50.9289 321.357 50.5589 321.679 50.1083C322.323 47.6626 322.677 44.8469 322.741 41.661V39.4889C322.837 37.6868 323.175 36.1743 323.755 34.9515C324.076 34.2435 325.01 33.6642 326.554 33.2137L327.568 33.1655C328.469 33.1655 329.048 33.2942 329.306 33.5516C329.595 34.871 329.627 36.7214 329.402 39.1027V43.7367C329.467 45.9893 329.499 47.55 329.499 48.4189C329.467 48.7407 329.499 51.3955 329.595 56.3835C329.531 56.4478 329.531 57.0432 329.595 58.1695C329.627 58.8774 329.563 60.4543 329.402 62.9C329.241 65.3135 329.161 66.7777 329.161 67.2926C328.678 70.0279 328.131 71.9104 327.52 72.9402C326.908 73.97 326.088 74.871 325.058 75.6433C324.35 76.3835 323.063 76.8823 321.196 77.1397C321.068 77.1075 320.714 77.0914 320.134 77.0914C317.431 76.8018 315.677 76.2547 314.873 75.4502C312.459 74.2274 311.059 73.3424 310.673 72.7954C310.319 72.2161 310.094 71.6852 309.997 71.2025C309.901 70.6876 310.03 69.8509 310.384 68.6924C311.059 67.8235 311.944 67.6626 313.039 68.2097C313.489 68.435 314.294 68.8855 315.452 69.5613L317.672 70.6715C317.994 70.9289 318.316 70.945 318.638 70.7198C319.088 70.4623 319.362 70.3336 319.458 70.3336C320.231 69.69 320.971 68.6924 321.679 67.3408C321.679 66.8903 321.904 66.2145 322.355 65.3135C322.355 64.4124 322.628 63.077 323.175 61.307V60.583C323.175 59.9072 323.224 59.328 323.32 58.8453C323.384 58.3947 323.417 58.0247 323.417 57.735C323.063 58.4108 322.773 59.0383 322.548 59.6176C322.323 60.229 322.049 60.7278 321.727 61.114C321.695 61.4036 321.228 61.6771 320.327 61.9346L317.817 61.9828C317.817 61.9506 317.689 61.9346 317.431 61.9346L316.417 61.8863C314.036 61.8863 312.524 61.5645 311.88 60.9209C311.558 60.5025 311.172 60.1164 310.722 59.7624C310.335 59.2797 310.094 58.6522 309.997 57.8799C309.869 57.7511 309.772 57.365 309.708 56.7214V55.9973L309.563 55.1767C309.627 55.0802 309.595 54.7584 309.467 54.2113C309.37 53.6964 309.322 52.8276 309.322 51.6047V50.7841C309.322 46.7616 309.37 44.6699 309.467 44.509C309.595 44.2194 309.66 43.9619 309.66 43.7367C309.563 43.5114 309.579 43.27 309.708 43.0126L309.853 42.0472L310.528 39.9716C310.528 39.7785 310.657 39.2153 310.915 38.2821C311.204 38.0247 311.365 37.7029 311.397 37.3167C311.59 36.48 311.687 35.9008 311.687 35.579C311.719 35.2572 311.912 34.8227 312.266 34.2757C312.813 33.8895 313.618 33.7447 314.68 33.8412C315.742 33.97 316.659 34.4366 317.431 35.2411L316.659 38.2338C316.723 38.5235 316.755 38.7809 316.755 39.0062Z" fill="#73D2E6"/>
<path d="M48.2566 27.6926C47.6546 27.5111 46.8943 28.259 46.5574 29.3658C46.2214 30.4727 46.4384 31.5171 47.0431 31.7005C47.6441 31.8839 48.4063 31.1341 48.7404 30.0263C49.0764 28.9204 48.8604 27.875 48.2566 27.6926ZM48.2546 29.8804C48.0684 30.4938 47.647 30.9104 47.3148 30.8096C46.9779 30.7069 46.8569 30.1271 47.0451 29.5127C47.2313 28.8993 47.6546 28.4836 47.9878 28.5844C48.3228 28.6871 48.4409 29.2669 48.2546 29.8804ZM65.6101 5.94231C65.6101 5.94231 64.605 2.76574 63.8639 1.51009C60.6624 -3.90612 59.4595 6.68246 59.1274 10.7153C59.4192 10.7355 59.711 10.7777 60.0019 10.843C61.4352 1.32865 65.6101 5.94231 65.6101 5.94231Z" fill="#73D2E6"/>
<path d="M68.8269 29.2919C71.2605 27.1377 68.7309 24.8904 68.7309 24.8904L69.0132 21.519C69.2724 20.3785 69.2829 19.6413 69.1639 19.1613C69.1658 19.167 69.1677 19.1718 69.1677 19.1776C69.1303 19.0912 68.8432 17.6579 63.9877 20.0512C63.9877 20.0512 65.3393 19.0518 66.6689 18.5315C64.172 14.2846 61.8719 12.4309 59.8559 11.9451C59.5896 11.8799 59.3182 11.8372 59.0447 11.8174C58.943 11.8117 58.8383 11.804 58.7385 11.804C54.2938 11.804 51.5002 18.2416 51.5002 18.2416C49.7761 15.6199 48.2546 15.1332 47.1986 15.1332C46.8213 15.1332 46.5026 15.1946 46.2559 15.2446C45.3189 15.4318 48.5041 18.5219 48.5041 18.5219C48.8785 19.9273 47.0047 28.355 47.0047 28.355C47.0047 28.355 47.0047 29.3582 47.6958 29.3582C47.7947 29.3582 47.908 29.338 48.0357 29.2919C49.0667 28.9176 50.0958 27.6062 50.0958 27.6062C47.1477 39.75 51.5396 39.581 54.7767 39.6866C61.0684 39.894 62.2981 40.2012 64.5166 41.2783C70.3696 44.1208 65.8097 47.4548 64.2968 47.4548C63.9608 47.4548 63.7746 47.2916 63.8849 46.9201C63.9781 46.6109 64.1672 46.5121 64.3669 46.5121C64.7163 46.5121 65.1051 46.8058 65.1051 46.8058C64.9025 45.7969 64.5157 45.3956 64.1269 45.3956C63.7285 45.3956 63.3253 45.8151 63.1131 46.4286C62.4527 48.3322 63.333 49.0291 64.5953 49.0291C65.8539 49.0291 67.4906 48.3351 68.3565 47.4586C70.8237 44.9569 68.2625 41.1842 68.2625 41.1842C68.6397 41.2245 68.9892 41.2427 69.3098 41.2427C77.3996 41.2437 68.8269 29.2919 68.8269 29.2919ZM54.0759 21.0515C54.0759 21.0515 52.8116 13.0913 59.6946 18.8512C59.6946 18.8502 53.9818 15.0574 54.0759 21.0515ZM59.709 25.6949C59.5286 26.3429 58.5878 27.7915 57.0748 26.2536C56.1187 25.2802 55.08 23.6981 55.6378 20.9843C56.1965 18.2695 58.4323 19.3072 59.1513 20.9843C59.8684 22.6614 60.0287 24.5525 59.709 25.6949ZM64.8814 26.7317C63.6872 27.5649 63.2418 26.4859 63.2014 26.0328C63.1323 25.2341 63.4741 23.9977 64.1605 22.9743C64.8449 21.95 66.4587 21.5391 66.4923 23.4111C66.5268 25.2831 65.6398 26.2037 64.8814 26.7317Z" fill="#73D2E6"/>
<path d="M67.7219 18.3107C67.8073 18.3107 67.9292 18.2982 68.0694 18.2982C68.4572 18.2982 68.9756 18.4019 69.1638 19.1612C68.9142 17.9948 67.8006 18.0889 66.6678 18.5315C66.6708 18.5348 66.6731 18.5388 66.6746 18.543C66.6746 18.543 67.2947 18.3107 67.7219 18.3107ZM74.1691 42.6471C73.0239 42.554 71.6098 42.697 70.2322 42.8334C70.7113 44.4058 70.8476 46.5149 69.1455 48.239C68.0588 49.3391 66.1446 50.1388 64.5952 50.1388C63.2599 50.1388 62.5716 49.5657 62.2279 49.0857C61.6884 48.3264 61.6347 47.3117 62.0647 46.0675C62.4449 44.9703 63.2349 44.2877 64.1258 44.2877C64.4992 44.2877 65.2826 44.4231 65.8096 45.4445C66.0419 45.2016 66.2243 44.9242 66.2877 44.6333C66.5123 43.6023 64.7863 42.6414 64.0327 42.2756C62.1031 41.3387 61.1134 41.0046 54.7401 40.7944L54.5039 40.7867C53.9951 40.7772 53.4868 40.7471 52.9804 40.6964L52.3958 42.195C52.3958 42.195 39.7903 48.1353 38.7881 57.8407C38.4502 61.1104 37.8838 68.196 46.4814 68.5013C48.5684 68.5752 51.5069 69.9653 52.3958 74.3975C52.8988 76.9088 53.8943 91.0128 48.0865 83.6968C44.9896 79.7945 44.9099 72.6647 28.4001 81.7337C30.034 80.8745 38.7238 76.8349 44.4587 84.6107C50.809 93.2218 57.1583 88.0187 60.1083 84.6107C63.0545 81.2009 78.0244 82.5612 77.1182 64.4195C77.1182 64.4195 83.8524 66.6428 87.6319 62.8201C91.2577 59.1521 94.3201 44.3127 74.1691 42.6471Z" fill="#73D2E6"/>
<path d="M0.0568901 82.6025C0.315125 81.6492 1.33078 81.3785 2.28692 81.3248C2.64596 81.3056 3.00691 81.2691 3.36498 81.296C5.5931 81.4553 5.84365 81.7097 6.06253 83.9503C6.07501 84.0684 6.12204 84.1845 6.22956 84.582C6.74699 84.0722 7.64169 81.8652 11.1955 81.055C10.8893 80.5145 10.4717 79.8483 11.2368 79.3194C11.4739 79.1552 12.0384 79.1686 12.264 79.3424C12.912 79.8473 12.6249 80.4809 12.1786 81.104C12.4752 81.2499 12.6902 81.3699 12.9139 81.4678C13.9766 81.9305 14.9433 82.4835 15.7142 83.4146C16.0166 83.7814 16.7413 83.9532 17.2693 83.9465C18.1525 83.9359 19.0559 83.7977 19.9074 83.5567C20.9965 83.2512 22.0589 82.8572 23.0839 82.3788C24.1706 81.8671 25.2804 81.9833 26.3968 82.0438C26.5773 82.0543 27.1792 82.4911 27.3549 82.6102C27.2301 82.781 26.6973 82.8473 26.5418 82.8809C23.4324 83.5337 21.2475 85.756 18.7592 87.4562C17.1388 88.5621 15.4751 89.5537 13.7481 89.9089C14.1302 90.3774 14.5372 90.769 14.9913 91.2692C15.4915 91.8202 15.4799 92.2733 14.7839 92.5536C13.6665 93.0557 9.81989 93.1728 8.24264 92.7053C7.47754 92.4567 7.40554 91.9575 7.99113 91.3978C8.50376 90.9092 9.0327 90.4398 9.60773 89.9099C7.93161 89.5144 6.60875 88.6667 5.71213 87.2046C5.07087 87.7355 4.56208 88.4977 3.78353 87.7969C3.07315 87.1586 3.50994 86.5154 4.07153 85.8875C3.41586 85.6408 2.83891 85.4316 2.26964 85.2069C1.38166 84.8508 0.293045 84.5378 0.0568901 83.5308C-0.0189634 83.226 -0.0189634 82.9073 0.0568901 82.6025V82.6025ZM5.10159 85.6447C5.11887 84.2921 4.41616 82.6159 3.39474 82.4441C3.12019 82.3951 1.13783 82.4047 2.16885 83.4242C3.08563 84.1673 4.04657 84.8546 5.10159 85.6447Z" fill="#73D2E6"/>
</svg>
